<svg width="520" height="202" xmlns="http://www.w3.org/2000/svg" xmlns:xlink="http://www.w3.org/1999/xlink" xml:space="preserve" overflow="hidden"><defs><filter id="fx0" x="-10%" y="-10%" width="120%" height="120%" filterUnits="userSpaceOnUse" primitiveUnits="userSpaceOnUse"><feComponentTransfer color-interpolation-filters="sRGB"><feFuncR type="discrete" tableValues="0.109804 0.109804"/><feFuncG type="discrete" tableValues="0.207843 0.207843"/><feFuncB type="discrete" tableValues="0.368627 0.368627"/><feFuncA type="linear" slope="0.4" intercept="0"/></feComponentTransfer><feGaussianBlur stdDeviation="6.88889 6.88889"/></filter><clipPath id="clip1"><rect x="36" y="36" width="520" height="202"/></clipPath><clipPath id="clip2"><rect x="21" y="21" width="219" height="60"/></clipPath><clipPath id="clip3"><rect x="21" y="21" width="219" height="60"/></clipPath><clipPath id="clip4"><rect x="78" y="74" width="436" height="118"/></clipPath><clipPath id="clip5"><rect x="78" y="74" width="436" height="118"/></clipPath><clipPath id="clip6"><rect x="78" y="74" width="436" height="150"/></clipPath></defs><g clip-path="url(#clip1)" transform="translate(-36 -36)"><g filter="url(#fx0)" transform="matrix(2 0 0 2 35 35)"><g><g clip-path="url(#clip2)"><g clip-path="url(#clip3)"><g><path d="M119.165 18.7119C116.953 18.7119 114.734 19.3189 112.927 20.5469L112.927 5.37916 108.825 5.37916 108.811 50.0729 112.955 50.0729 112.99 28.8005C112.99 24.9632 116.109 22.8841 119.165 22.8841 122.221 22.8841 125.346 24.9632 125.346 28.8005L125.311 50.0729 129.581 50.0729 129.511 28.8005C129.511 21.9701 124.376 18.7189 119.172 18.7189Z" fill="#FFFFFF" transform="matrix(1.00189 0 0 1 21.7943 21.5)"/><path d="M169.6 11.763 173.675 11.763 173.675 16.0956 169.6 16.0956Z" fill="#FFFFFF" transform="matrix(1.00189 0 0 1 21.7943 21.5)"/><path d="M98.5481 39.7821 98.5481 22.8701 105.309 22.8701 105.309 18.7119 98.5481 18.7119 98.5481 5.50474 94.4457 5.50474 94.4457 39.7821C94.4457 45.7682 99.783 50.059 105.895 50.059L105.895 45.9635C101.925 45.9635 98.5481 43.1658 98.5481 39.7821Z" fill="#FFFFFF" transform="matrix(1.00189 0 0 1 21.7943 21.5)"/><path d="M181.95 39.7821 181.95 22.8701 188.717 22.8701 188.717 18.7119 181.95 18.7119 181.95 5.50474 177.854 5.50474 177.854 39.7821C177.854 45.7682 183.191 50.059 189.303 50.059L189.303 45.9635C185.333 45.9635 181.95 43.1658 181.95 39.7821Z" fill="#FFFFFF" transform="matrix(1.00189 0 0 1 21.7943 21.5)"/><path d="M159.463 39.8867 159.463 5.60242 155.368 5.60242 155.368 39.8867C155.368 45.831 160.635 50.1078 166.698 50.1636L166.698 50.1915 166.817 46.0961 166.817 46.0682C162.847 46.0682 159.463 43.2705 159.463 39.8867Z" fill="#FFFFFF" transform="matrix(1.00189 0 0 1 21.7943 21.5)"/><path d="M90.148 18.8096C84.0851 18.8654 78.8176 23.1422 78.8176 29.0865L78.8176 50.045 82.92 50.045 82.92 29.0865C82.92 25.7027 86.3037 22.905 90.2736 22.905L90.2736 22.8771 91.5155 22.8771 91.5155 18.7817 90.155 18.7817 90.155 18.8096Z" fill="#FFFFFF" transform="matrix(1.00189 0 0 1 21.7943 21.5)"/><path d="M169.593 18.8375 173.696 18.8375 173.696 50.059 169.593 50.059Z" fill="#FFFFFF" transform="matrix(1.00189 0 0 1 21.7943 21.5)"/><path d="M200.668 46.1589C197.417 46.1589 194.752 43.5565 194.752 40.3053L194.752 38.0937 200.668 38.0937C206.068 38.0937 210.687 34.3192 210.687 28.5284 210.687 22.7376 206.138 18.4468 200.668 18.4468 195.199 18.4468 190.587 23.2608 190.587 28.5912L190.587 40.2983C190.587 46.0263 195.206 50.3171 200.668 50.3171 203.599 50.3171 207.303 49.2078 209.843 45.5659L206.396 43.0961C204.834 45.2449 202.496 46.1519 200.668 46.1519ZM194.752 28.6609C194.752 25.34 197.354 22.6748 200.668 22.6748 203.982 22.6748 206.522 25.2772 206.522 28.5284 206.522 31.7796 203.92 34.5145 200.668 34.5145L194.752 34.5145 194.752 28.6609Z" fill="#FFFFFF" transform="matrix(1.00189 0 0 1 21.7943 21.5)"/><path d="M142.46 18.7119C137.326 18.7119 132.121 21.9632 132.121 28.7935L132.121 40.6263C132.121 47.3938 137.256 50.7148 142.46 50.7148 147.665 50.7148 152.8 47.4008 152.8 40.6263L152.8 28.7935C152.8 21.9632 147.658 18.7119 142.46 18.7119ZM148.642 40.6332C148.642 44.5403 145.586 46.4868 142.46 46.4868 139.335 46.4868 136.279 44.5333 136.279 40.6332L136.279 28.8005C136.279 24.9632 139.398 22.8841 142.46 22.8841 145.523 22.8841 148.642 24.9632 148.642 28.8005L148.642 40.6332Z" fill="#FFFFFF" transform="matrix(1.00189 0 0 1 21.7943 21.5)"/><path d="M63.9987 4.13728C57.9498 4.13728 52.0264 7.70943 52.0264 14.8049L52.0264 39.7193C52.0264 46.8705 57.9498 50.4497 63.9987 50.4497 70.0477 50.4497 75.964 46.8705 75.964 39.7193L75.964 14.8119C75.964 7.71641 69.9779 4.14425 63.9987 4.14425ZM71.7361 39.7193C71.7361 44.01 67.8988 46.2217 63.9987 46.2217 60.0987 46.2217 56.1916 44.01 56.1916 39.7193L56.1916 14.8119C56.1916 10.5839 60.0289 8.36525 63.9987 8.36525 67.9686 8.36525 71.7361 10.5839 71.7361 14.8119L71.7361 39.7262Z" fill="#FFFFFF" transform="matrix(1.00189 0 0 1 21.7943 21.5)"/><path d="M212.508 17.9515C209.871 17.9515 207.987 15.97 207.987 13.3607 207.987 10.5978 210.073 8.76991 212.508 8.76991 214.943 8.76991 217.001 10.5978 217.001 13.3607 217.001 16.1235 214.915 17.9515 212.508 17.9515ZM212.508 9.56527C210.52 9.56527 208.971 11.1281 208.971 13.3607 208.971 15.4468 210.324 17.1561 212.508 17.1561 214.469 17.1561 216.018 15.6072 216.018 13.3607 216.018 11.1141 214.469 9.56527 212.508 9.56527ZM211.601 15.984 210.764 15.984 210.764 10.9048 212.69 10.9048C213.917 10.9048 214.538 11.3374 214.538 12.363 214.538 13.2839 213.973 13.6677 213.213 13.7514L214.636 15.984 213.694 15.984 212.376 13.8142 211.594 13.8142 211.594 15.984ZM212.529 13.1025C213.157 13.1025 213.708 13.0398 213.708 12.3002 213.708 11.6862 213.108 11.6095 212.606 11.6095L211.601 11.6095 211.601 13.0956 212.529 13.0956Z" fill="#FFFFFF" transform="matrix(1.00189 0 0 1 21.7943 21.5)"/><path d="M11.1909 34.0331C12.4188 35.2262 13.1863 36.9006 13.1863 38.7495 13.1863 42.6426 9.81644 45.7473 5.83265 45.3007 2.75586 44.9589 0.293028 42.4333 0.0209306 39.3495-0.160468 37.2983 0.60001 35.4215 1.91864 34.1029 3.46052 32.554 4.33961 30.4679 4.33961 28.2772L4.33961 28.2772C4.33961 26.1144 3.54424 23.9934 1.99538 22.4864 0.767455 21.2934 0 19.6189 0 17.7701 0 13.877 3.36982 10.7723 7.35361 11.2188 10.4304 11.5607 12.8932 14.0863 13.1653 17.17 13.3467 19.2212 12.5863 21.098 11.2676 22.4166 9.72574 23.9655 8.84666 26.0516 8.84666 28.2423L8.84666 28.2423C8.84666 30.4052 9.64202 32.5261 11.1909 34.0331ZM35.4215 28.2423 35.4215 28.2423C35.4215 26.0586 36.2936 23.9655 37.8425 22.4166 39.1611 21.098 39.9216 19.2212 39.7402 17.17 39.4681 14.0863 37.0053 11.5607 33.9285 11.2188 29.9447 10.7723 26.5749 13.877 26.5749 17.7701 26.5749 19.6189 27.3423 21.2934 28.5702 22.4864 30.1191 23.9934 30.9145 26.1144 30.9145 28.2772L30.9145 28.2772C30.9145 30.461 30.0424 32.554 28.4935 34.1029 27.1749 35.4215 26.4144 37.2983 26.5958 39.3495 26.8679 42.4333 29.3307 44.9589 32.4075 45.3007 36.3913 45.7473 39.7611 42.6426 39.7611 38.7495 39.7611 36.9006 38.9937 35.2262 37.7657 34.0331 36.2169 32.5261 35.4215 30.4052 35.4215 28.2423ZM22.0329 38.0169C22.0329 35.9099 22.8562 33.8936 24.3004 32.3657 25.1934 31.5214 25.8493 30.4331 26.1632 29.2051 26.1632 29.1842 26.1772 29.1633 26.1772 29.1493 26.226 28.9609 26.2609 28.7656 26.2888 28.5772 26.2958 28.5214 26.3097 28.4656 26.3167 28.4098 26.3376 28.2493 26.3446 28.0888 26.3586 27.9284 26.3586 27.8377 26.3725 27.747 26.3725 27.6493 26.3725 27.6214 26.3725 27.6005 26.3725 27.5725 26.3725 27.4539 26.3586 27.3423 26.3516 27.2307 26.3516 27.133 26.3516 27.0423 26.3446 26.9516 26.1981 25.3051 25.4237 23.819 24.2655 22.7376 22.7934 21.2376 22.0259 19.1724 22.0259 17.0654 22.0259 14.9584 22.8981 12.7886 24.4469 11.2397 25.7655 9.92109 26.526 8.04432 26.3446 5.99312 26.0725 2.90935 23.6097 0.383727 20.5329 0.0418612 16.5491-0.404658 13.1793 2.70004 13.1793 6.59313 13.1793 8.442 13.9467 10.1164 15.1747 11.3095 16.7235 12.8165 17.5189 14.9375 17.5189 17.1003L17.5189 17.1003C17.5189 19.2073 16.6956 21.2236 15.2514 22.7515 14.3584 23.5957 13.7026 24.6841 13.3886 25.9121 13.3886 25.933 13.3746 25.9539 13.3746 25.9679 13.3258 26.1562 13.2909 26.3516 13.263 26.5469 13.256 26.6028 13.2421 26.6586 13.2351 26.7074 13.2142 26.8679 13.2072 27.0284 13.1932 27.1888 13.1932 27.2795 13.1793 27.3702 13.1793 27.4679 13.1793 27.4958 13.1793 27.5167 13.1793 27.5446 13.1793 27.6563 13.1932 27.7679 13.2002 27.8865 13.2002 27.9842 13.2002 28.0749 13.2072 28.1726 13.3537 29.8191 14.1281 31.3052 15.2863 32.3866 16.7584 33.8866 17.5259 35.9518 17.5259 38.0588L17.5259 38.0588C17.5259 40.2425 16.6538 42.3356 15.1049 43.8844 13.7863 45.2031 13.0258 47.0798 13.2072 49.131 13.4793 52.2148 15.9421 54.7404 19.0189 55.0823 23.0027 55.5288 26.3725 52.4241 26.3725 48.531 26.3725 46.6822 25.6051 45.0077 24.3771 43.8147 22.8283 42.3077 22.0329 40.1867 22.0329 38.0239Z" fill="#FFFFFF" transform="matrix(1.00189 0 0 1 21.7943 21.5)"/><path d="M59.5754 71.1988C59.5545 73.1803 58.18 74.8198 56.366 74.8198 54.5521 74.8198 53.1148 73.3407 53.1148 71.5896L53.1148 67.822C53.1148 65.9871 54.6149 64.5918 56.366 64.5918 58.1172 64.5918 59.5545 66.1755 59.5754 68.2127L58.2428 68.2127C58.2428 66.922 57.4126 65.9453 56.366 65.9453 55.3195 65.9453 54.4474 66.7755 54.4474 67.822L54.4474 71.5896C54.4474 72.6291 55.2986 73.4873 56.366 73.4873 57.4335 73.4873 58.2428 72.4477 58.2428 71.1988L59.5754 71.1988Z" fill="#FFFFFF" transform="matrix(1.00189 0 0 1 21.7943 21.5)"/><path d="M67.0546 67.8081C67.0546 66.5802 66.0778 65.9104 65.0732 65.9104 64.0685 65.9104 63.0987 66.5802 63.0987 67.8081L63.0987 71.5965C63.0987 72.8454 64.0964 73.4733 65.0732 73.4733 66.0499 73.4733 67.0546 72.8454 67.0546 71.5965L67.0546 67.8081ZM68.3872 71.5965C68.3872 73.7594 66.7197 74.8268 65.0732 74.8268 63.4266 74.8268 61.7592 73.7663 61.7592 71.5965L61.7592 67.8081C61.7592 65.6243 63.4266 64.5778 65.0732 64.5778 66.7197 64.5778 68.3872 65.6174 68.3872 67.8081L68.3872 71.5965Z" fill="#FFFFFF" transform="matrix(1.00189 0 0 1 21.7943 21.5)"/><path d="M72.0919 74.7222 70.7802 74.7222 70.7802 64.7243 71.8616 64.7243 72.05 65.722C72.4268 64.9127 73.3407 64.5778 74.0314 64.5778 75.0082 64.5778 76.1385 65.0173 76.571 66.3709 77.0315 65.0173 78.1129 64.5778 79.1525 64.5778 80.8618 64.5778 82.32 66.1406 82.32 67.829L82.32 74.7222 81.0083 74.7222 81.0083 67.829C81.0083 66.8104 80.1571 65.9313 79.1106 65.9313 78.0641 65.9313 77.2129 66.8034 77.2129 67.829L77.2129 74.7222 75.9013 74.7222 75.9013 67.829C75.9013 66.8104 75.0501 65.9313 73.9826 65.9313 72.9152 65.9313 72.0849 66.8034 72.0849 67.829L72.0849 74.7222Z" fill="#FFFFFF" transform="matrix(1.00189 0 0 1 21.7943 21.5)"/><path d="M86.527 74.7222 85.2154 74.7222 85.2154 63.601C85.2154 61.7033 86.9456 60.3289 88.9201 60.3289L88.9201 61.6405C87.6293 61.6405 86.527 62.5127 86.527 63.601L86.527 67.0197 88.6689 67.0197 88.6689 68.3314 86.527 68.3314 86.527 74.7222Z" fill="#FFFFFF" transform="matrix(1.00189 0 0 1 21.7943 21.5)"/><path d="M95.2341 67.8081C95.2341 66.5802 94.2574 65.9104 93.2527 65.9104 92.248 65.9104 91.2782 66.5802 91.2782 67.8081L91.2782 71.5965C91.2782 72.8454 92.2759 73.4733 93.2527 73.4733 94.2295 73.4733 95.2341 72.8454 95.2341 71.5965L95.2341 67.8081ZM96.5667 71.5965C96.5667 73.7594 94.8992 74.8268 93.2527 74.8268 91.6062 74.8268 89.9387 73.7663 89.9387 71.5965L89.9387 67.8081C89.9387 65.6243 91.6062 64.5778 93.2527 64.5778 94.8992 64.5778 96.5667 65.6174 96.5667 67.8081L96.5667 71.5965Z" fill="#FFFFFF" transform="matrix(1.00189 0 0 1 21.7943 21.5)"/><path d="M98.9598 74.7222 98.9598 64.7662 100.146 64.7662 100.292 65.722C100.669 64.8918 101.437 64.6406 102.002 64.6406 102.441 64.6406 102.916 64.7453 103.564 65.1011L103.104 66.2871C101.939 65.5964 100.397 66.015 100.292 67.4313L100.292 74.7222 98.9598 74.7222Z" fill="#FFFFFF" transform="matrix(1.00189 0 0 1 21.7943 21.5)"/><path d="M108.581 64.6825 108.581 66.015 106.418 66.015 106.418 71.4291C106.418 72.5105 107.499 73.4105 108.769 73.4105L108.769 74.7222C106.809 74.7222 105.106 73.3477 105.106 71.4291L105.106 60.4545 106.418 60.4545 106.418 64.6825 108.581 64.6825Z" fill="#FFFFFF" transform="matrix(1.00189 0 0 1 21.7943 21.5)"/><path d="M118.034 74.7222 116.723 74.7222 116.723 63.601C116.723 61.7033 118.453 60.3289 120.428 60.3289L120.428 61.6405C119.137 61.6405 118.034 62.5127 118.034 63.601L118.034 67.0197 120.176 67.0197 120.176 68.3314 118.034 68.3314 118.034 74.7222Z" fill="#FFFFFF" transform="matrix(1.00189 0 0 1 21.7943 21.5)"/><path d="M126.742 67.8081C126.742 66.5802 125.765 65.9104 124.76 65.9104 123.756 65.9104 122.786 66.5802 122.786 67.8081L122.786 71.5965C122.786 72.8454 123.783 73.4733 124.76 73.4733 125.737 73.4733 126.742 72.8454 126.742 71.5965L126.742 67.8081ZM128.074 71.5965C128.074 73.7594 126.407 74.8268 124.76 74.8268 123.114 74.8268 121.446 73.7663 121.446 71.5965L121.446 67.8081C121.446 65.6243 123.114 64.5778 124.76 64.5778 126.407 64.5778 128.074 65.6174 128.074 67.8081L128.074 71.5965Z" fill="#FFFFFF" transform="matrix(1.00189 0 0 1 21.7943 21.5)"/><path d="M133.195 73.5152C134.13 73.5152 135.093 73.0128 135.093 72.1198L135.093 70.536C135.093 69.5384 134.242 68.9732 133.195 68.9732 132.149 68.9732 131.318 69.8035 131.318 70.85L131.318 71.5965C131.318 72.657 132.149 73.5152 133.195 73.5152M129.986 71.5965 129.986 70.85C129.986 69.1407 131.444 67.6406 133.195 67.6406 133.858 67.6406 134.842 67.9337 135.135 68.7849L135.093 67.85C135.093 66.8104 134.242 65.9732 133.195 65.9732 132.714 65.9732 132.156 66.2453 131.632 66.7406L130.865 65.5964C131.514 65.0104 132.407 64.6197 133.195 64.6197 134.925 64.6197 136.425 66.0569 136.425 67.85L136.425 74.7222 135.26 74.7222 135.135 73.8082C134.716 74.6175 133.802 74.8477 133.195 74.8477 131.444 74.8477 129.986 73.3477 129.986 71.5965" fill="#FFFFFF" transform="matrix(1.00189 0 0 1 21.7943 21.5)"/><path d="M140.172 74.7222 138.86 74.7222 138.86 64.7243 139.942 64.7243 140.13 65.722C140.507 64.9127 141.421 64.5778 142.112 64.5778 143.088 64.5778 144.212 65.0173 144.651 66.3709 145.112 65.0173 146.193 64.5778 147.233 64.5778 148.942 64.5778 150.4 66.1406 150.4 67.829L150.4 74.7222 149.089 74.7222 149.089 67.829C149.089 66.8104 148.237 65.9313 147.191 65.9313 146.144 65.9313 145.293 66.8034 145.293 67.829L145.293 74.7222 143.981 74.7222 143.981 67.829C143.981 66.8104 143.13 65.9313 142.063 65.9313 140.995 65.9313 140.165 66.8034 140.165 67.829L140.165 74.7222Z" fill="#FFFFFF" transform="matrix(1.00189 0 0 1 21.7943 21.5)"/><path d="M160.893 74.7222 159.582 74.7222 159.582 64.7243 160.893 64.7243 160.893 74.7222ZM161.145 63.1406C161.145 63.6429 160.705 64.0127 160.231 64.0127 159.756 64.0127 159.379 63.6359 159.379 63.1406 159.379 62.5964 159.777 62.2475 160.231 62.2475 160.684 62.2475 161.145 62.6034 161.145 63.1406" fill="#FFFFFF" transform="matrix(1.00189 0 0 1 21.7943 21.5)"/><path d="M164.703 67.829 164.703 74.7222 163.37 74.7222 163.37 64.7034 164.493 64.7034 164.661 65.7011C165.059 64.9127 165.952 64.5778 166.6 64.5778 168.352 64.5778 169.831 66.1406 169.831 67.829L169.831 74.7222 168.498 74.7222 168.498 67.829C168.498 66.8104 167.647 65.9313 166.579 65.9313 165.512 65.9313 164.703 66.8034 164.703 67.829" fill="#FFFFFF" transform="matrix(1.00189 0 0 1 21.7943 21.5)"/><path d="M177.094 67.0127C176.57 66.2662 175.908 65.8895 175.363 65.8895 174.819 65.8895 174.282 66.1197 173.926 66.5174 173.654 66.7685 173.466 67.1802 173.466 67.7034 173.445 68.6174 174.233 68.9104 175.196 68.9523 176.801 68.9942 178.342 69.9291 178.342 71.8686 178.363 73.9128 176.717 74.8687 175.091 74.8687 173.968 74.8687 172.677 74.2268 171.966 72.9919L173.11 72.3849C173.591 73.1524 174.359 73.5291 175.112 73.5291 176.068 73.5291 177.01 72.9431 177.01 71.8616 177.01 70.7802 176.117 70.3198 175.175 70.2988 173.487 70.257 172.133 69.5453 172.133 67.6965 172.112 65.6941 173.717 64.5708 175.342 64.5708 176.382 64.5708 177.449 65.115 178.217 66.2592L177.094 67.0058Z" fill="#FFFFFF" transform="matrix(1.00189 0 0 1 21.7943 21.5)"/><path d="M185.445 67.8081C185.445 66.5802 184.468 65.9104 183.463 65.9104 182.459 65.9104 181.489 66.5802 181.489 67.8081L181.489 71.5965C181.489 72.8454 182.487 73.4733 183.463 73.4733 184.44 73.4733 185.445 72.8454 185.445 71.5965L185.445 67.8081ZM186.777 71.5965C186.777 73.7594 185.11 74.8268 183.463 74.8268 181.817 74.8268 180.149 73.7663 180.149 71.5965L180.149 67.8081C180.149 65.6243 181.817 64.5778 183.463 64.5778 185.11 64.5778 186.777 65.6174 186.777 67.8081L186.777 71.5965Z" fill="#FFFFFF" transform="matrix(1.00189 0 0 1 21.7943 21.5)"/><path d="M192.694 73.4105 192.694 74.7222C190.692 74.7222 189.178 73.3477 189.178 71.4291L189.178 60.4545 190.489 60.4545 190.489 71.4291C190.489 72.5105 191.445 73.4105 192.694 73.4105" fill="#FFFFFF" transform="matrix(1.00189 0 0 1 21.7943 21.5)"/><path d="M197.11 69.7407C198.15 69.7407 198.987 68.8895 198.987 67.822 198.987 66.7546 198.157 65.9453 197.11 65.9453 196.064 65.9453 195.213 66.7964 195.213 67.8639L195.213 69.7407 197.11 69.7407ZM197.11 70.8849 195.213 70.8849 195.213 71.5965C195.213 72.6361 196.064 73.4733 197.11 73.4733 197.696 73.4733 198.443 73.1803 198.945 72.4965L200.047 73.2849C199.238 74.4501 198.052 74.8059 197.11 74.8059 195.359 74.8059 193.88 73.4314 193.88 71.5965L193.88 67.85C193.88 66.1406 195.275 64.5987 197.11 64.5987 198.945 64.5987 200.32 66.036 200.32 67.829 200.32 69.6221 198.84 70.8919 197.11 70.8919" fill="#FFFFFF" transform="matrix(1.00189 0 0 1 21.7943 21.5)"/><path d="M207.213 67.0127C206.689 66.2662 206.027 65.8895 205.482 65.8895 204.938 65.8895 204.401 66.1197 204.045 66.5174 203.773 66.7685 203.585 67.1802 203.585 67.7034 203.564 68.6174 204.359 68.9104 205.315 68.9523 206.92 68.9942 208.462 69.9291 208.462 71.8686 208.482 73.9128 206.836 74.8687 205.21 74.8687 204.087 74.8687 202.796 74.2268 202.085 72.9919L203.229 72.3849C203.71 73.1524 204.478 73.5291 205.231 73.5291 206.187 73.5291 207.129 72.9431 207.129 71.8616 207.129 70.7802 206.236 70.3198 205.294 70.2988 203.606 70.257 202.252 69.5453 202.252 67.6965 202.231 65.6941 203.836 64.5708 205.462 64.5708 206.501 64.5708 207.569 65.115 208.336 66.2592L207.213 67.0058Z" fill="#FFFFFF" transform="matrix(1.00189 0 0 1 21.7943 21.5)"/></g></g></g></g></g><g clip-path="url(#clip4)"><g clip-path="url(#clip5)"><g clip-path="url(#clip6)"><path d="M238.33 37.4239C233.906 37.4239 229.469 38.6378 225.855 41.0937L225.855 10.7583 217.65 10.7583 217.622 100.146 225.911 100.146 225.98 57.6009C225.98 49.9264 232.218 45.7682 238.33 45.7682 244.441 45.7682 250.693 49.9264 250.693 57.6009L250.623 100.146 259.162 100.146 259.023 57.6009C259.023 43.9403 248.753 37.4378 238.343 37.4378Z" fill="#FFFFFF" transform="matrix(1.00189 0 0 1 78.5885 74)"/><path d="M339.201 23.526 347.35 23.526 347.35 32.1912 339.201 32.1912Z" fill="#FFFFFF" transform="matrix(1.00189 0 0 1 78.5885 74)"/><path d="M197.096 79.5641 197.096 45.7403 210.617 45.7403 210.617 37.4239 197.096 37.4239 197.096 11.0095 188.891 11.0095 188.891 79.5641C188.891 91.5364 199.566 100.118 211.79 100.118L211.79 91.9271C203.85 91.9271 197.096 86.3316 197.096 79.5641Z" fill="#FFFFFF" transform="matrix(1.00189 0 0 1 78.5885 74)"/><path d="M363.899 79.5641 363.899 45.7403 377.434 45.7403 377.434 37.4239 363.899 37.4239 363.899 11.0095 355.708 11.0095 355.708 79.5641C355.708 91.5364 366.383 100.118 378.606 100.118L378.606 91.9271C370.667 91.9271 363.899 86.3316 363.899 79.5641Z" fill="#FFFFFF" transform="matrix(1.00189 0 0 1 78.5885 74)"/><path d="M318.926 79.7734 318.926 11.2048 310.735 11.2048 310.735 79.7734C310.735 91.662 321.27 100.216 333.396 100.327L333.396 100.383 333.633 92.1922 333.633 92.1364C325.694 92.1364 318.926 86.541 318.926 79.7734Z" fill="#FFFFFF" transform="matrix(1.00189 0 0 1 78.5885 74)"/><path d="M180.296 37.6192C168.17 37.7309 157.635 46.2845 157.635 58.173L157.635 100.09 165.84 100.09 165.84 58.173C165.84 51.4055 172.607 45.8101 180.547 45.8101L180.547 45.7542 183.031 45.7542 183.031 37.5634 180.31 37.5634 180.31 37.6192Z" fill="#FFFFFF" transform="matrix(1.00189 0 0 1 78.5885 74)"/><path d="M339.187 37.675 347.392 37.675 347.392 100.118 339.187 100.118Z" fill="#FFFFFF" transform="matrix(1.00189 0 0 1 78.5885 74)"/><path d="M401.337 92.3178C394.834 92.3178 389.504 87.1131 389.504 80.6106L389.504 76.1873 401.337 76.1873C412.137 76.1873 421.374 68.6383 421.374 57.0568 421.374 45.4752 412.277 36.8936 401.337 36.8936 390.397 36.8936 381.174 46.5217 381.174 57.1823L381.174 80.5967C381.174 92.0527 390.411 100.634 401.337 100.634 407.197 100.634 414.607 98.4156 419.686 91.1317L412.793 86.1921C409.667 90.4899 404.993 92.3038 401.337 92.3038ZM389.504 57.3219C389.504 50.6799 394.709 45.3496 401.337 45.3496 407.965 45.3496 413.044 50.5543 413.044 57.0568 413.044 63.5592 407.839 69.029 401.337 69.029L389.504 69.029 389.504 57.3219Z" fill="#FFFFFF" transform="matrix(1.00189 0 0 1 78.5885 74)"/><path d="M284.921 37.4239C274.651 37.4239 264.242 43.9263 264.242 57.587L264.242 81.2525C264.242 94.7876 274.511 101.43 284.921 101.43 295.33 101.43 305.6 94.8016 305.6 81.2525L305.6 57.587C305.6 43.9263 295.316 37.4239 284.921 37.4239ZM297.284 81.2665C297.284 89.0805 291.172 92.9736 284.921 92.9736 278.67 92.9736 272.558 89.0666 272.558 81.2665L272.558 57.6009C272.558 49.9264 278.795 45.7682 284.921 45.7682 291.047 45.7682 297.284 49.9264 297.284 57.6009L297.284 81.2665Z" fill="#FFFFFF" transform="matrix(1.00189 0 0 1 78.5885 74)"/><path d="M127.997 8.27455C115.9 8.27455 104.053 15.4189 104.053 29.6098L104.053 79.4385C104.053 93.7411 115.9 100.899 127.997 100.899 140.095 100.899 151.928 93.7411 151.928 79.4385L151.928 29.6237C151.928 15.4328 139.956 8.28851 127.997 8.28851ZM143.472 79.4385C143.472 88.0201 135.798 92.4434 127.997 92.4434 120.197 92.4434 112.383 88.0201 112.383 79.4385L112.383 29.6237C112.383 21.1678 120.058 16.7305 127.997 16.7305 135.937 16.7305 143.472 21.1678 143.472 29.6237L143.472 79.4525Z" fill="#FFFFFF" transform="matrix(1.00189 0 0 1 78.5885 74)"/><path d="M425.016 35.9029C419.742 35.9029 415.974 31.9401 415.974 26.7214 415.974 21.1957 420.146 17.5398 425.016 17.5398 429.886 17.5398 434.003 21.1957 434.003 26.7214 434.003 32.247 429.83 35.9029 425.016 35.9029ZM425.016 19.1305C421.039 19.1305 417.942 22.2562 417.942 26.7214 417.942 30.8935 420.649 34.3122 425.016 34.3122 428.937 34.3122 432.035 31.2145 432.035 26.7214 432.035 22.2283 428.937 19.1305 425.016 19.1305ZM423.202 31.968 421.528 31.968 421.528 21.8097 425.379 21.8097C427.835 21.8097 429.077 22.6748 429.077 24.726 429.077 26.5679 427.947 27.3353 426.426 27.5028L429.272 31.968 427.388 31.968 424.751 27.6284 423.188 27.6284 423.188 31.968ZM425.058 26.2051C426.314 26.2051 427.416 26.0795 427.416 24.6004 427.416 23.3725 426.216 23.219 425.212 23.219L423.202 23.219 423.202 26.1911 425.058 26.1911Z" fill="#FFFFFF" transform="matrix(1.00189 0 0 1 78.5885 74)"/><path d="M22.3818 68.0662C24.8376 70.4523 26.3725 73.8012 26.3725 77.4989 26.3725 85.2851 19.6329 91.4945 11.6653 90.6015 5.51172 89.9178 0.586056 84.8665 0.0418612 78.699-0.320936 74.5966 1.20002 70.843 3.83727 68.2058 6.92104 65.108 8.67921 60.9359 8.67921 56.5544L8.67921 56.5544C8.67921 52.2288 7.08849 47.9868 3.99076 44.9728 1.53491 42.5867 0 39.2379 0 35.5401 0 27.7539 6.73965 21.5445 14.7072 22.4376 20.8608 23.1213 25.7865 28.1726 26.3307 34.3401 26.6935 38.4425 25.1725 42.196 22.5353 44.8333 19.4515 47.931 17.6933 52.1032 17.6933 56.4846L17.6933 56.4846C17.6933 60.8103 19.284 65.0522 22.3818 68.0662ZM70.843 56.4846 70.843 56.4846C70.843 52.1171 72.5872 47.931 75.685 44.8333 78.3222 42.196 79.8432 38.4425 79.4804 34.3401 78.9362 28.1726 74.0105 23.1213 67.8569 22.4376 59.8894 21.5445 53.1497 27.7539 53.1497 35.5401 53.1497 39.2379 54.6846 42.5867 57.1405 44.9728 60.2382 47.9868 61.8289 52.2288 61.8289 56.5544L61.8289 56.5544C61.8289 60.9219 60.0847 65.108 56.987 68.2058 54.3497 70.843 52.8288 74.5966 53.1916 78.699 53.7358 84.8665 58.6614 89.9178 64.815 90.6015 72.7826 91.4945 79.5222 85.2851 79.5222 77.4989 79.5222 73.8012 77.9873 70.4523 75.5315 68.0662 72.4337 65.0522 70.843 60.8103 70.843 56.4846ZM44.0658 76.0338C44.0658 71.8198 45.7124 67.7872 48.6008 64.7313 50.3869 63.0429 51.6985 60.8661 52.3264 58.4103 52.3264 58.3684 52.3544 58.3265 52.3544 58.2986 52.452 57.9219 52.5218 57.5312 52.5776 57.1544 52.5916 57.0428 52.6195 56.9312 52.6334 56.8195 52.6753 56.4986 52.6892 56.1777 52.7171 55.8567 52.7171 55.6753 52.7451 55.4939 52.7451 55.2986 52.7451 55.2428 52.7451 55.2009 52.7451 55.1451 52.7451 54.9079 52.7171 54.6846 52.7032 54.4614 52.7032 54.266 52.7032 54.0846 52.6892 53.9032 52.3962 50.6101 50.8473 47.638 48.531 45.4752 45.5868 42.4751 44.0519 38.3448 44.0519 34.1308 44.0519 29.9168 45.7961 25.5772 48.8938 22.4794 51.5311 19.8422 53.052 16.0886 52.6892 11.9862 52.145 5.8187 47.2194 0.767455 41.0658 0.0837223 33.0982-0.809316 26.3586 5.40009 26.3586 13.1863 26.3586 16.884 27.8935 20.2329 30.3493 22.619 33.4471 25.633 35.0378 29.8749 35.0378 34.2006L35.0378 34.2006C35.0378 38.4146 33.3912 42.4472 30.5028 45.5031 28.7168 47.1915 27.4051 49.3683 26.7772 51.8241 26.7772 51.866 26.7493 51.9078 26.7493 51.9357 26.6516 52.3125 26.5818 52.7032 26.526 53.0939 26.5121 53.2055 26.4842 53.3172 26.4702 53.4148 26.4283 53.7358 26.4144 54.0567 26.3865 54.3776 26.3865 54.559 26.3586 54.7404 26.3586 54.9358 26.3586 54.9916 26.3586 55.0335 26.3586 55.0893 26.3586 55.3125 26.3865 55.5358 26.4004 55.773 26.4004 55.9684 26.4004 56.1498 26.4144 56.3451 26.7074 59.6382 28.2563 62.6103 30.5726 64.7732 33.5168 67.7732 35.0517 71.9035 35.0517 76.1175L35.0517 76.1175C35.0517 80.485 33.3075 84.6712 30.2098 87.7689 27.5725 90.4061 26.0516 94.1597 26.4144 98.2621 26.9586 104.43 31.8842 109.481 38.0378 110.165 46.0054 111.058 52.7451 104.848 52.7451 97.0621 52.7451 93.3643 51.2101 90.0154 48.7543 87.6293 45.6566 84.6153 44.0658 80.3734 44.0658 76.0478Z" fill="#FFFFFF" transform="matrix(1.00189 0 0 1 78.5885 74)"/><path d="M119.151 142.398C119.109 146.361 116.36 149.64 112.732 149.64 109.104 149.64 106.23 146.681 106.23 143.179L106.23 135.644C106.23 131.974 109.23 129.184 112.732 129.184 116.234 129.184 119.109 132.351 119.151 136.425L116.486 136.425C116.486 133.844 114.825 131.891 112.732 131.891 110.639 131.891 108.895 133.551 108.895 135.644L108.895 143.179C108.895 145.258 110.597 146.975 112.732 146.975 114.867 146.975 116.486 144.895 116.486 142.398L119.151 142.398Z" fill="#FFFFFF" transform="matrix(1.00189 0 0 1 78.5885 74)"/><path d="M134.109 135.616C134.109 133.16 132.156 131.821 130.146 131.821 128.137 131.821 126.197 133.16 126.197 135.616L126.197 143.193C126.197 145.691 128.193 146.947 130.146 146.947 132.1 146.947 134.109 145.691 134.109 143.193L134.109 135.616ZM136.774 143.193C136.774 147.519 133.439 149.654 130.146 149.654 126.853 149.654 123.518 147.533 123.518 143.193L123.518 135.616C123.518 131.249 126.853 129.156 130.146 129.156 133.439 129.156 136.774 131.235 136.774 135.616L136.774 143.193Z" fill="#FFFFFF" transform="matrix(1.00189 0 0 1 78.5885 74)"/><path d="M144.184 149.444 141.56 149.444 141.56 129.449 143.723 129.449 144.1 131.444C144.854 129.825 146.681 129.156 148.063 129.156 150.016 129.156 152.277 130.035 153.142 132.742 154.063 130.035 156.226 129.156 158.305 129.156 161.724 129.156 164.64 132.281 164.64 135.658L164.64 149.444 162.017 149.444 162.017 135.658C162.017 133.621 160.314 131.863 158.221 131.863 156.128 131.863 154.426 133.607 154.426 135.658L154.426 149.444 151.803 149.444 151.803 135.658C151.803 133.621 150.1 131.863 147.965 131.863 145.83 131.863 144.17 133.607 144.17 135.658L144.17 149.444Z" fill="#FFFFFF" transform="matrix(1.00189 0 0 1 78.5885 74)"/><path d="M173.054 149.444 170.431 149.444 170.431 127.202C170.431 123.407 173.891 120.658 177.84 120.658L177.84 123.281C175.259 123.281 173.054 125.025 173.054 127.202L173.054 134.039 177.338 134.039 177.338 136.663 173.054 136.663 173.054 149.444Z" fill="#FFFFFF" transform="matrix(1.00189 0 0 1 78.5885 74)"/><path d="M190.468 135.616C190.468 133.16 188.515 131.821 186.505 131.821 184.496 131.821 182.556 133.16 182.556 135.616L182.556 143.193C182.556 145.691 184.552 146.947 186.505 146.947 188.459 146.947 190.468 145.691 190.468 143.193L190.468 135.616ZM193.133 143.193C193.133 147.519 189.798 149.654 186.505 149.654 183.212 149.654 179.877 147.533 179.877 143.193L179.877 135.616C179.877 131.249 183.212 129.156 186.505 129.156 189.798 129.156 193.133 131.235 193.133 135.616L193.133 143.193Z" fill="#FFFFFF" transform="matrix(1.00189 0 0 1 78.5885 74)"/><path d="M197.92 149.444 197.92 129.532 200.292 129.532 200.585 131.444C201.338 129.784 202.873 129.281 204.003 129.281 204.882 129.281 205.831 129.491 207.129 130.202L206.208 132.574C203.878 131.193 200.794 132.03 200.585 134.863L200.585 149.444 197.92 149.444Z" fill="#FFFFFF" transform="matrix(1.00189 0 0 1 78.5885 74)"/><path d="M217.162 129.365 217.162 132.03 212.836 132.03 212.836 142.858C212.836 145.021 214.999 146.821 217.538 146.821L217.538 149.444C213.617 149.444 210.213 146.695 210.213 142.858L210.213 120.909 212.836 120.909 212.836 129.365 217.162 129.365Z" fill="#FFFFFF" transform="matrix(1.00189 0 0 1 78.5885 74)"/><path d="M236.069 149.444 233.446 149.444 233.446 127.202C233.446 123.407 236.906 120.658 240.855 120.658L240.855 123.281C238.274 123.281 236.069 125.025 236.069 127.202L236.069 134.039 240.353 134.039 240.353 136.663 236.069 136.663 236.069 149.444Z" fill="#FFFFFF" transform="matrix(1.00189 0 0 1 78.5885 74)"/><path d="M253.483 135.616C253.483 133.16 251.53 131.821 249.52 131.821 247.511 131.821 245.571 133.16 245.571 135.616L245.571 143.193C245.571 145.691 247.567 146.947 249.52 146.947 251.474 146.947 253.483 145.691 253.483 143.193L253.483 135.616ZM256.148 143.193C256.148 147.519 252.813 149.654 249.52 149.654 246.227 149.654 242.892 147.533 242.892 143.193L242.892 135.616C242.892 131.249 246.227 129.156 249.52 129.156 252.813 129.156 256.148 131.235 256.148 135.616L256.148 143.193Z" fill="#FFFFFF" transform="matrix(1.00189 0 0 1 78.5885 74)"/><path d="M266.39 147.03C268.26 147.03 270.186 146.026 270.186 144.24L270.186 141.072C270.186 139.077 268.483 137.946 266.39 137.946 264.297 137.946 262.637 139.607 262.637 141.7L262.637 143.193C262.637 145.314 264.297 147.03 266.39 147.03M259.972 143.193 259.972 141.7C259.972 138.281 262.888 135.281 266.39 135.281 267.716 135.281 269.684 135.867 270.27 137.57L270.186 135.7C270.186 133.621 268.483 131.946 266.39 131.946 265.428 131.946 264.311 132.491 263.265 133.481L261.73 131.193C263.028 130.021 264.814 129.239 266.39 129.239 269.851 129.239 272.851 132.114 272.851 135.7L272.851 149.444 270.521 149.444 270.27 147.616C269.432 149.235 267.604 149.695 266.39 149.695 262.888 149.695 259.972 146.695 259.972 143.193" fill="#FFFFFF" transform="matrix(1.00189 0 0 1 78.5885 74)"/><path d="M280.344 149.444 277.721 149.444 277.721 129.449 279.884 129.449 280.26 131.444C281.014 129.825 282.842 129.156 284.223 129.156 286.177 129.156 288.423 130.035 289.302 132.742 290.223 130.035 292.386 129.156 294.465 129.156 297.884 129.156 300.8 132.281 300.8 135.658L300.8 149.444 298.177 149.444 298.177 135.658C298.177 133.621 296.475 131.863 294.382 131.863 292.289 131.863 290.586 133.607 290.586 135.658L290.586 149.444 287.963 149.444 287.963 135.658C287.963 133.621 286.261 131.863 284.126 131.863 281.991 131.863 280.33 133.607 280.33 135.658L280.33 149.444Z" fill="#FFFFFF" transform="matrix(1.00189 0 0 1 78.5885 74)"/><path d="M321.787 149.444 319.163 149.444 319.163 129.449 321.787 129.449 321.787 149.444ZM322.289 126.281C322.289 127.286 321.41 128.025 320.461 128.025 319.512 128.025 318.759 127.272 318.759 126.281 318.759 125.193 319.554 124.495 320.461 124.495 321.368 124.495 322.289 125.207 322.289 126.281" fill="#FFFFFF" transform="matrix(1.00189 0 0 1 78.5885 74)"/><path d="M329.405 135.658 329.405 149.444 326.74 149.444 326.74 129.407 328.987 129.407 329.322 131.402C330.117 129.825 331.903 129.156 333.201 129.156 336.703 129.156 339.661 132.281 339.661 135.658L339.661 149.444 336.996 149.444 336.996 135.658C336.996 133.621 335.294 131.863 333.159 131.863 331.024 131.863 329.405 133.607 329.405 135.658" fill="#FFFFFF" transform="matrix(1.00189 0 0 1 78.5885 74)"/><path d="M354.187 134.025C353.141 132.532 351.815 131.779 350.727 131.779 349.638 131.779 348.564 132.239 347.852 133.035 347.308 133.537 346.931 134.36 346.931 135.407 346.889 137.235 348.466 137.821 350.392 137.905 353.601 137.988 356.685 139.858 356.685 143.737 356.727 147.826 353.434 149.737 350.183 149.737 347.936 149.737 345.355 148.454 343.931 145.984L346.22 144.77C347.182 146.305 348.717 147.058 350.224 147.058 352.136 147.058 354.02 145.886 354.02 143.723 354.02 141.56 352.234 140.64 350.35 140.598 346.973 140.514 344.266 139.091 344.266 135.393 344.224 131.388 347.434 129.142 350.685 129.142 352.764 129.142 354.899 130.23 356.434 132.518L354.187 134.012Z" fill="#FFFFFF" transform="matrix(1.00189 0 0 1 78.5885 74)"/><path d="M370.89 135.616C370.89 133.16 368.936 131.821 366.927 131.821 364.918 131.821 362.978 133.16 362.978 135.616L362.978 143.193C362.978 145.691 364.973 146.947 366.927 146.947 368.88 146.947 370.89 145.691 370.89 143.193L370.89 135.616ZM373.555 143.193C373.555 147.519 370.22 149.654 366.927 149.654 363.634 149.654 360.299 147.533 360.299 143.193L360.299 135.616C360.299 131.249 363.634 129.156 366.927 129.156 370.22 129.156 373.555 131.235 373.555 135.616L373.555 143.193Z" fill="#FFFFFF" transform="matrix(1.00189 0 0 1 78.5885 74)"/><path d="M385.388 146.821 385.388 149.444C381.383 149.444 378.355 146.695 378.355 142.858L378.355 120.909 380.978 120.909 380.978 142.858C380.978 145.021 382.89 146.821 385.388 146.821" fill="#FFFFFF" transform="matrix(1.00189 0 0 1 78.5885 74)"/><path d="M394.22 139.481C396.3 139.481 397.974 137.779 397.974 135.644 397.974 133.509 396.313 131.891 394.22 131.891 392.127 131.891 390.425 133.593 390.425 135.728L390.425 139.481 394.22 139.481ZM394.22 141.77 390.425 141.77 390.425 143.193C390.425 145.272 392.127 146.947 394.22 146.947 395.393 146.947 396.886 146.361 397.89 144.993L400.095 146.57C398.476 148.9 396.104 149.612 394.22 149.612 390.718 149.612 387.76 146.863 387.76 143.193L387.76 135.7C387.76 132.281 390.551 129.197 394.22 129.197 397.89 129.197 400.639 132.072 400.639 135.658 400.639 139.244 397.681 141.784 394.22 141.784" fill="#FFFFFF" transform="matrix(1.00189 0 0 1 78.5885 74)"/><path d="M414.425 134.025C413.379 132.532 412.053 131.779 410.965 131.779 409.876 131.779 408.802 132.239 408.09 133.035 407.546 133.537 407.169 134.36 407.169 135.407 407.128 137.235 408.718 137.821 410.63 137.905 413.839 137.988 416.923 139.858 416.923 143.737 416.965 147.826 413.672 149.737 410.421 149.737 408.174 149.737 405.593 148.454 404.169 145.984L406.458 144.77C407.421 146.305 408.956 147.058 410.463 147.058 412.374 147.058 414.258 145.886 414.258 143.723 414.258 141.56 412.472 140.64 410.588 140.598 407.211 140.514 404.504 139.091 404.504 135.393 404.462 131.388 407.672 129.142 410.923 129.142 413.002 129.142 415.137 130.23 416.672 132.518L414.425 134.012Z" fill="#FFFFFF" transform="matrix(1.00189 0 0 1 78.5885 74)"/></g></g></g></g></svg>